<svg width="106" height="106" viewBox="0 0 106 106" fill="none" xmlns="http://www.w3.org/2000/svg">
<circle cx="53" cy="53" r="53" fill="#333333"/>
<path fill-rule="evenodd" clip-rule="evenodd" d="M73.8693 39.3272H62.472V34.1519C62.472 32.9634 61.5169 32 60.3387 32H45.672C44.4938 32 43.5387 32.9634 43.5387 34.1519V39.3272H32.1307C30.4041 39.3331 29.0059 40.7434 29 42.485V71.826C28.9971 73.5739 30.3978 74.9941 32.1307 75H73.8693C75.6021 74.9941 77.0029 73.5739 77 71.826V42.485C76.9941 40.7434 75.5959 39.3331 73.8693 39.3272ZM45 34.1519C45.0029 33.7906 45.2925 33.4985 45.6507 33.4956H60.3173C60.6755 33.4985 60.9651 33.7906 60.968 34.1519V39.3272H45V34.1519ZM73.8693 40.8389H32.1307C31.6951 40.8388 31.2775 41.0145 30.971 41.3267C30.6645 41.6389 30.4944 42.0618 30.4987 42.5012V52.7226H47.768V51.5875C47.768 50.7526 48.439 50.0758 49.2667 50.0758H56.7333C57.1336 50.0715 57.5189 50.2289 57.8034 50.5128C58.0879 50.7968 58.248 51.1838 58.248 51.5875V52.7011H75.496V42.4797C75.4931 41.5747 74.7665 40.8418 73.8693 40.8389ZM56.7333 51.5875V55.3533H49.2667V51.5875H56.7333ZM32.1307 73.4668H73.8533L73.8693 73.4722C74.7707 73.4722 75.5013 72.7351 75.5013 71.826V54.2397H58.232V55.3748C58.232 56.2097 57.561 56.8865 56.7333 56.8865H49.2667C48.8664 56.8908 48.4811 56.7335 48.1966 56.4495C47.9121 56.1655 47.752 55.7786 47.752 55.3748V54.2397H30.4987V71.826C30.5016 72.733 31.2314 73.4668 32.1307 73.4668Z" fill="white"/>
<path d="M62.472 39.3272H61.972V39.8272H62.472V39.3272ZM73.8693 39.3272L73.871 38.8272H73.8693V39.3272ZM43.5387 39.3272V39.8272H44.0387V39.3272H43.5387ZM32.1307 39.3272V38.8272L32.129 38.8272L32.1307 39.3272ZM29 42.485L28.5 42.4834V42.485H29ZM29 71.826L29.5 71.8268V71.826H29ZM32.1307 75L32.129 75.5H32.1307V75ZM73.8693 75V75.5L73.871 75.5L73.8693 75ZM77 71.826H76.5V71.8268L77 71.826ZM77 42.485H77.5L77.5 42.4834L77 42.485ZM45.6507 33.4956V32.9955L45.6466 32.9956L45.6507 33.4956ZM45 34.1519L44.5 34.1479V34.1519H45ZM60.3173 33.4956L60.3214 32.9956H60.3173V33.4956ZM60.968 34.1519H61.468L61.468 34.1479L60.968 34.1519ZM60.968 39.3272V39.8272H61.468V39.3272H60.968ZM45 39.3272H44.5V39.8272H45V39.3272ZM32.1307 40.8389L32.1306 41.3389H32.1307V40.8389ZM73.8693 40.8389L73.871 40.3389H73.8693V40.8389ZM30.971 41.3267L31.3278 41.677L31.3278 41.677L30.971 41.3267ZM30.4987 42.5012H30.9987L30.9986 42.4963L30.4987 42.5012ZM30.4987 52.7226H29.9987V53.2226H30.4987V52.7226ZM47.768 52.7226V53.2226H48.268V52.7226H47.768ZM56.7333 50.0758V50.5758L56.7387 50.5758L56.7333 50.0758ZM57.8034 50.5128L57.4502 50.8667L57.4502 50.8667L57.8034 50.5128ZM58.248 51.5875L57.748 51.5875V51.5875H58.248ZM58.248 52.7011H57.748V53.2011H58.248V52.7011ZM75.496 52.7011V53.2011H75.996V52.7011H75.496ZM75.496 42.4797H75.996L75.996 42.4781L75.496 42.4797ZM56.7333 55.3533V55.8533H57.2333V55.3533H56.7333ZM56.7333 51.5875H57.2333V51.0875H56.7333V51.5875ZM49.2667 55.3533H48.7667V55.8533H49.2667V55.3533ZM49.2667 51.5875V51.0875H48.7667V51.5875H49.2667ZM73.8533 73.4668L74.0127 72.9929L73.9352 72.9668H73.8533V73.4668ZM32.1307 73.4668V72.9668H32.1307L32.1307 73.4668ZM73.8693 73.4722L73.7099 73.9461L73.7875 73.9722H73.8693V73.4722ZM75.5013 54.2397H76.0013V53.7397H75.5013V54.2397ZM58.232 54.2397V53.7397H57.732V54.2397H58.232ZM49.2667 56.8865V56.3865L49.2613 56.3866L49.2667 56.8865ZM48.1966 56.4495L47.8434 56.8034L48.1966 56.4495ZM47.752 55.3748L48.252 55.3749V55.3748H47.752ZM47.752 54.2397H48.252V53.7397H47.752V54.2397ZM30.4987 54.2397V53.7397H29.9987V54.2397H30.4987ZM30.4987 71.826H29.9987L29.9987 71.8276L30.4987 71.826ZM62.472 39.8272H73.8693V38.8272H62.472V39.8272ZM61.972 34.1519V39.3272H62.972V34.1519H61.972ZM60.3387 32.5C61.2367 32.5 61.972 33.2355 61.972 34.1519H62.972C62.972 32.6914 61.7971 31.5 60.3387 31.5V32.5ZM45.672 32.5H60.3387V31.5H45.672V32.5ZM44.0387 34.1519C44.0387 33.2355 44.774 32.5 45.672 32.5V31.5C44.2136 31.5 43.0387 32.6914 43.0387 34.1519H44.0387ZM44.0387 39.3272V34.1519H43.0387V39.3272H44.0387ZM32.1307 39.8272H43.5387V38.8272H32.1307V39.8272ZM29.5 42.4867C29.5049 41.0159 30.6846 39.8321 32.1324 39.8272L32.129 38.8272C30.1235 38.834 28.5068 40.471 28.5 42.4834L29.5 42.4867ZM29.5 71.826V42.485H28.5V71.826H29.5ZM32.1324 74.5C30.6794 74.495 29.4975 73.303 29.5 71.8268L28.5 71.8251C28.4966 73.8448 30.1163 75.4931 32.129 75.5L32.1324 74.5ZM73.8693 74.5H32.1307V75.5H73.8693V74.5ZM76.5 71.8268C76.5025 73.303 75.3206 74.495 73.8676 74.5L73.871 75.5C75.8837 75.4931 77.5034 73.8448 77.5 71.8251L76.5 71.8268ZM76.5 42.485V71.826H77.5V42.485H76.5ZM73.8676 39.8272C75.3153 39.8321 76.495 41.0159 76.5 42.4867L77.5 42.4834C77.4932 40.471 75.8765 38.834 73.871 38.8272L73.8676 39.8272ZM45.6466 32.9956C45.0115 33.0008 44.5051 33.5176 44.5 34.1479L45.5 34.1559C45.5007 34.0636 45.5736 33.9962 45.6548 33.9955L45.6466 32.9956ZM60.3173 32.9956H45.6507V33.9956H60.3173V32.9956ZM61.468 34.1479C61.4629 33.5176 60.9565 33.0008 60.3214 32.9956L60.3132 33.9955C60.3944 33.9962 60.4673 34.0636 60.468 34.1559L61.468 34.1479ZM61.468 39.3272V34.1519H60.468V39.3272H61.468ZM45 39.8272H60.968V38.8272H45V39.8272ZM44.5 34.1519V39.3272H45.5V34.1519H44.5ZM32.1307 41.3389H73.8693V40.3389H32.1307V41.3389ZM31.3278 41.677C31.5407 41.4601 31.8299 41.3388 32.1306 41.3389L32.1307 40.3389C31.5602 40.3388 31.0143 40.5689 30.6142 40.9764L31.3278 41.677ZM30.9986 42.4963C30.9957 42.189 31.1147 41.8941 31.3278 41.677L30.6142 40.9764C30.2143 41.3838 29.9931 41.9346 29.9987 42.506L30.9986 42.4963ZM30.9987 52.7226V42.5012H29.9987V52.7226H30.9987ZM47.768 52.2226H30.4987V53.2226H47.768V52.2226ZM47.268 51.5875V52.7226H48.268V51.5875H47.268ZM49.2667 49.5758C48.1588 49.5758 47.268 50.4806 47.268 51.5875H48.268C48.268 51.0247 48.7192 50.5758 49.2667 50.5758V49.5758ZM56.7333 49.5758H49.2667V50.5758H56.7333V49.5758ZM58.1566 50.1589C57.7775 49.7806 57.2631 49.5701 56.7279 49.5758L56.7387 50.5758C57.004 50.5729 57.2603 50.6772 57.4502 50.8667L58.1566 50.1589ZM58.748 51.5875C58.748 51.0517 58.5356 50.5372 58.1566 50.1589L57.4502 50.8667C57.6403 51.0564 57.748 51.3159 57.748 51.5875L58.748 51.5875ZM58.748 52.7011V51.5875H57.748V52.7011H58.748ZM75.496 52.2011H58.248V53.2011H75.496V52.2011ZM74.996 42.4797V52.7011H75.996V42.4797H74.996ZM73.8677 41.3389C74.4859 41.3409 74.9939 41.8471 74.996 42.4813L75.996 42.4781C75.9922 41.3023 75.047 40.3427 73.871 40.3389L73.8677 41.3389ZM57.2333 55.3533V51.5875H56.2333V55.3533H57.2333ZM49.2667 55.8533H56.7333V54.8533H49.2667V55.8533ZM48.7667 51.5875V55.3533H49.7667V51.5875H48.7667ZM56.7333 51.0875H49.2667V52.0875H56.7333V51.0875ZM73.8533 72.9668H32.1307V73.9668H73.8533V72.9668ZM74.0287 72.9983L74.0127 72.9929L73.6939 73.9407L73.7099 73.9461L74.0287 72.9983ZM75.0013 71.826C75.0013 72.4631 74.4904 72.9722 73.8693 72.9722V73.9722C75.0509 73.9722 76.0013 73.0072 76.0013 71.826H75.0013ZM75.0013 54.2397V71.826H76.0013V54.2397H75.0013ZM58.232 54.7397H75.5013V53.7397H58.232V54.7397ZM58.732 55.3748V54.2397H57.732V55.3748H58.732ZM56.7333 57.3865C57.8412 57.3865 58.732 56.4818 58.732 55.3748H57.732C57.732 55.9377 57.2808 56.3865 56.7333 56.3865V57.3865ZM49.2667 57.3865H56.7333V56.3865H49.2667V57.3865ZM47.8434 56.8034C48.2225 57.1818 48.7369 57.3923 49.272 57.3865L49.2613 56.3866C48.996 56.3894 48.7397 56.2852 48.5498 56.0956L47.8434 56.8034ZM47.252 55.3748C47.252 55.9107 47.4644 56.4252 47.8434 56.8034L48.5498 56.0956C48.3597 55.9059 48.252 55.6465 48.252 55.3749L47.252 55.3748ZM47.252 54.2397V55.3748H48.252V54.2397H47.252ZM30.4987 54.7397H47.752V53.7397H30.4987V54.7397ZM30.9987 71.826V54.2397H29.9987V71.826H30.9987ZM32.1307 72.9668C31.511 72.9668 31.0007 72.46 30.9987 71.8244L29.9987 71.8276C30.0025 73.0061 30.9519 73.9668 32.1307 73.9668L32.1307 72.9668Z" fill="white"/>
</svg>
