<svg width="190" height="40" viewBox="0 0 190 40" fill="none" xmlns="http://www.w3.org/2000/svg">
<g clip-path="url(#clip0_1018_1927)">
<path d="M190 8.62781C190 9.75008 189.119 10.6329 187.971 10.6329C186.823 10.6329 185.931 9.75206 185.931 8.62781C185.931 7.50356 186.835 6.6485 187.971 6.6485C189.107 6.6485 190 7.52929 190 8.62781ZM186.439 8.62781C186.439 9.5086 187.091 10.2093 187.985 10.2093C188.88 10.2093 189.493 9.5086 189.493 8.63969C189.493 7.77077 188.854 7.04634 187.971 7.04634C187.089 7.04634 186.437 7.75889 186.437 8.62781H186.439ZM187.659 9.66497H187.199V7.68566C187.38 7.65003 187.635 7.62628 187.959 7.62628C188.334 7.62628 188.502 7.68566 188.648 7.77077C188.757 7.85588 188.842 8.01224 188.842 8.20622C188.842 8.42394 188.674 8.59218 188.433 8.66542V8.68917C188.626 8.7624 188.733 8.90689 188.795 9.17212C188.854 9.47298 188.892 9.59371 188.939 9.66695H188.444C188.385 9.59371 188.347 9.4136 188.288 9.184C188.252 8.96627 188.132 8.86929 187.878 8.86929H187.661V9.66695L187.659 9.66497ZM187.67 8.5427H187.888C188.142 8.5427 188.347 8.45759 188.347 8.25372C188.347 8.0736 188.215 7.95286 187.926 7.95286C187.805 7.95286 187.72 7.96474 187.672 7.97662V8.54468L187.67 8.5427Z" fill="#AE1F23"/>
<path d="M160.657 25.2857C157.246 27.4095 154.462 27.6925 153.234 27.6925C149.129 27.6925 146.392 25.0977 146.392 21.4162C146.392 17.7346 149.129 15.1398 153.234 15.1398C154.462 15.1398 157.246 15.4228 160.657 17.5466V10.4171C156.938 9.09098 154.721 8.81586 152.904 8.81586C144.597 8.81586 139.359 14.2431 139.359 21.4162C139.359 28.5892 144.599 34.0164 152.904 34.0164C154.721 34.0164 156.938 33.7413 160.657 32.4152V25.2857Z" fill="#AE1F23"/>
<path d="M160.657 25.2857C157.246 27.4095 154.462 27.6925 153.234 27.6925C149.129 27.6925 146.392 25.0977 146.392 21.4162C146.392 17.7346 149.129 15.1398 153.234 15.1398C154.462 15.1398 157.246 15.4228 160.657 17.5466V10.4171C156.938 9.09098 154.721 8.81586 152.904 8.81586C144.597 8.81586 139.359 14.2431 139.359 21.4162C139.359 28.5892 144.599 34.0164 152.904 34.0164C154.721 34.0164 156.938 33.7413 160.657 32.4152V25.2857Z" fill="#AE1F23"/>
<path d="M102.991 8.86926C109.191 8.86926 112.886 11.6324 112.886 11.6324C111.093 13.483 109.681 17.5861 109.681 17.5861C107.326 15.4663 104.545 15.1833 103.32 15.1833C99.2208 15.1833 96.4874 17.7742 96.4874 21.4498C96.4874 25.1253 99.2208 27.7163 103.32 27.7163C104.545 27.7163 107.326 27.4332 109.681 25.3134L112.886 30.4497C108.739 33.5117 105.487 34.0303 102.991 34.0303C94.6981 34.0303 89.4688 28.6109 89.4688 21.4498C89.4688 14.2886 94.6981 8.86926 102.991 8.86926Z" fill="#AE1F23"/>
<path d="M138.914 9.38787V33.5592H131.893V30.0261C130.15 32.524 127.842 34.0778 124.307 34.0778C116.956 34.0778 112.528 28.4229 112.528 21.3548C112.528 14.2867 116.627 8.86731 124.166 8.86731C127.418 8.86731 130.245 10.4686 131.893 12.6834V9.38589H138.914V9.38787ZM125.767 28.3754C129.207 28.3754 132.081 26.1605 132.081 21.7784C132.081 17.3962 129.396 14.5697 125.579 14.5697C121.763 14.5697 119.548 17.6792 119.548 21.4023C119.548 25.1254 121.904 28.3754 125.767 28.3754Z" fill="#AE1F23"/>
<path d="M162.618 0H169.639V12.4598C171.666 9.63331 174.209 8.64365 177.13 8.64365C183.916 8.64365 185.752 14.063 185.752 20.187V33.3336H178.732V20.3295C178.732 16.9845 177.507 14.4391 174.255 14.4391C171.003 14.4391 169.637 17.03 169.637 20.377V33.3356H162.616V0H162.618Z" fill="#AE1F23"/>
<path style="mix-blend-mode:multiply" opacity="0.34" d="M119.548 18.5501C119.548 18.5501 120.104 24.5158 115.797 30.519L113.907 27.7084L119.548 18.5501Z" fill="url(#paint0_linear_1018_1927)"/>
<path d="M131.893 12.6854C131.893 12.6854 129.245 8.78023 124.166 8.8693C111.146 9.09692 113.43 22.0871 109.684 25.3134C108.357 26.4555 105.828 28.1814 101.602 27.6747V33.8581C101.602 33.8581 106.337 35.1783 112.886 30.4477C119.436 25.7192 118.109 14.8983 125.199 14.5677C125.199 14.5677 131.492 13.8374 132.064 21.1984L131.891 12.6815L131.893 12.6854Z" fill="url(#paint1_linear_1018_1927)"/>
<g style="mix-blend-mode:screen" opacity="0.73">
<path d="M118.758 10.2865C118.758 10.2865 114.903 13.1644 113.4 18.2512C112.221 22.2455 110.984 26.7425 107.451 27.0493C107.451 27.0493 107.74 26.9305 107.845 26.8731C111.346 24.9631 111.296 23.5617 112.819 18.4848C113.436 16.4243 115.128 11.9095 118.758 10.2885V10.2865Z" fill="#DBDADA"/>
</g>
<path style="mix-blend-mode:multiply" opacity="0.34" d="M138.779 22.2158C138.779 22.2158 134.227 12.723 131.893 12.2499V9.32056H132.362C132.362 9.32056 136.647 10.6546 138.779 22.2138V22.2158Z" fill="url(#paint2_linear_1018_1927)"/>
<path d="M131.893 9.38788C131.893 9.38788 135.753 12.6874 139.755 24.7236C139.755 24.7236 140.46 27.2769 141.437 28.5298C141.437 28.5298 142.775 30.2577 143.446 30.7981L148.058 25.7251C148.058 25.7251 145.628 22.7423 144.076 18.4076C144.076 18.4076 141.6 9.38788 138.914 9.38788H131.893Z" fill="url(#paint3_linear_1018_1927)"/>
<path style="mix-blend-mode:screen" opacity="0.73" d="M139.173 22.863C139.173 22.863 135.107 11.1237 131.893 9.38788C131.893 9.38788 136.362 10.336 139.173 22.863Z" fill="url(#paint4_linear_1018_1927)"/>
<path d="M153.51 5.83304V7.99841C154.301 8.02216 155.226 8.10529 156.372 8.32499V5.80335C156.372 5.79147 156.423 4.53263 155.819 3.89925C155.594 3.66174 155.303 3.54694 154.931 3.54694C154.559 3.54694 154.274 3.66174 154.052 3.89529C153.448 4.53263 153.51 5.80731 153.51 5.81919V5.83106V5.83304Z" fill="#AE1F23"/>
<path d="M147.946 5.74991V8.66742C148.854 8.40615 149.81 8.21811 150.808 8.10727V5.72022C150.826 5.36988 150.76 4.34658 150.255 3.8181C150.03 3.58059 149.739 3.46381 149.365 3.46381C148.991 3.46381 148.71 3.57861 148.486 3.81216C147.882 4.4495 147.944 5.72418 147.944 5.73606V5.74793L147.946 5.74991Z" fill="#AE1F23"/>
<path d="M156.372 34.4479C155.228 34.6676 154.301 34.7508 153.51 34.7745V37.2586C153.51 37.2704 153.448 38.5471 154.05 39.1844C154.274 39.42 154.561 39.5328 154.929 39.5328C155.297 39.5328 155.592 39.418 155.817 39.1805C156.421 38.5471 156.372 37.2883 156.37 37.2586V34.4479H156.372Z" fill="#AE1F23"/>
<path d="M150.808 34.6676C149.933 34.5706 149.086 34.4182 148.28 34.2044C148.169 34.1866 148.058 34.1708 147.946 34.151V37.2605C147.946 37.2724 147.884 38.549 148.486 39.1864C148.71 39.4219 148.997 39.5347 149.365 39.5347C149.733 39.5347 150.028 39.4199 150.253 39.1824C150.857 38.549 150.808 37.2902 150.806 37.2605V34.6676H150.808Z" fill="#AE1F23"/>
<path d="M72.6824 20.5314V33.8522H65.7548V20.4839C65.7548 17.2081 64.8186 14.6331 61.7289 14.6331C58.6392 14.6331 57.7505 17.3012 57.7505 20.5314V33.8522H50.7754V9.39184H57.7505V12.6676C59.2943 10.2806 61.5409 8.87524 64.1635 8.87524C67.8133 8.87524 70.2954 10.4666 71.5126 12.9012C73.3376 9.38987 76.8013 8.87524 79.0954 8.87524C85.8349 8.87524 87.6618 14.259 87.6618 20.3434V33.8581H80.6867V20.4839C80.6867 17.2081 79.7505 14.6331 76.6608 14.6331C73.5711 14.6331 72.6824 17.3012 72.6824 20.5314Z" fill="#E02A27"/>
<path d="M13.4336 8.8772C15.9137 8.8772 19.1439 9.39182 23.2628 12.434L20.0801 17.5367C17.7406 15.4307 14.9774 15.1496 13.7621 15.1496C9.69071 15.1496 6.97509 17.7247 6.97509 21.3746C6.97509 25.0244 9.69071 27.5995 13.7621 27.5995C14.9794 27.5995 17.7406 27.3184 20.0801 25.2125L23.2628 30.3151C19.1439 33.3573 15.9137 33.8719 13.4336 33.8719C5.19569 33.8719 0 28.4882 0 21.3746C0 14.2609 5.19569 8.8772 13.4336 8.8772Z" fill="#E02A27"/>
<path d="M35.7542 8.87722C28.7791 8.87722 22.5542 13.8849 22.5542 21.3746C22.5542 22.3801 22.669 23.34 22.8768 24.2505C23.4944 26.9424 24.967 29.1889 26.9621 30.8357C29.3432 32.8031 32.4646 33.9175 35.7542 33.9175C42.7748 33.9175 48.9543 28.8623 48.9543 21.3726C48.9543 13.8829 42.7748 8.87524 35.7542 8.87524V8.87722ZM35.7542 27.9281C33.2583 27.9281 30.988 26.4535 29.9449 24.1793C29.561 23.342 29.3413 22.3959 29.3413 21.3746C29.3413 18.0493 31.7046 15.5 34.628 14.9715C34.9961 14.9042 35.3722 14.8686 35.7542 14.8686C39.218 14.8686 42.1672 17.6772 42.1672 21.3746C42.1672 25.0719 39.218 27.9281 35.7542 27.9281Z" fill="#D33927"/>
<path style="mix-blend-mode:multiply" opacity="0.37" d="M29.3039 19.7733C29.3039 19.7733 29.7433 24.9294 26.3686 30.3112L24.0093 27.4828L29.3039 19.7714V19.7733Z" fill="url(#paint5_linear_1018_1927)"/>
<path d="M6.97509 21.3746C6.97509 21.3746 6.92165 23.8883 8.55062 25.5668C10.6447 27.7242 15.5455 28.9494 20.0801 25.2125C24.4682 21.6556 20.1138 12.5132 33.5335 9.04742L34.7646 14.9458C34.7646 14.9458 30.5764 15.3911 29.3413 20.3849C26.79 30.6932 19.0192 33.5513 14.1758 33.8719C7.74109 34.2955 0.269186 30.3606 0 21.8437L6.97509 21.3746Z" fill="url(#paint6_linear_1018_1927)"/>
<path style="mix-blend-mode:multiply" opacity="0.37" d="M37.7041 27.6728C37.7041 27.6728 44.2616 29.5373 48.8734 18.9856L48.0084 16.4045C48.0084 16.4045 45.267 25.0126 37.7041 27.6728Z" fill="url(#paint7_linear_1018_1927)"/>
<path style="mix-blend-mode:multiply" opacity="0.37" d="M57.5921 10.051C57.6653 10.8051 59.1518 19.5418 50.809 30.5428L50.7773 25.7786C50.7773 25.7786 57.3071 14.5816 57.5921 10.051Z" fill="url(#paint8_linear_1018_1927)"/>
<path d="M35.7544 27.9281C35.7544 27.9281 49.7976 27.7024 50.7774 9.3938H57.7525C57.7525 9.3938 56.3175 33.9194 35.7544 33.9194V27.9281Z" fill="url(#paint9_linear_1018_1927)"/>
<path style="mix-blend-mode:screen" d="M33.3572 9.71844C33.3572 9.71844 24.2939 11.9115 23.2627 20.7056C23.2627 20.7056 23.5794 11.8225 33.3572 9.71844Z" fill="url(#paint10_linear_1018_1927)"/>
<path style="mix-blend-mode:screen" opacity="0.92" d="M51.2028 9.41559C51.2028 9.41559 51.9648 20.6224 43.5527 25.3965C43.5527 25.3965 50.3398 21.7467 51.2028 9.41559Z" fill="url(#paint11_linear_1018_1927)"/>
<path style="mix-blend-mode:multiply" opacity="0.37" d="M80.4927 17.129L80.653 20.1019C80.653 20.1019 81.5397 26.6475 87.4876 30.0558V23.5914C87.4876 23.5914 81.8901 19.9534 80.4927 17.129Z" fill="url(#paint12_linear_1018_1927)"/>
<path style="mix-blend-mode:multiply" opacity="0.37" d="M90.2468 23.8289L90.0825 20.4898C91.1236 23.1658 97.303 27.3659 102.74 27.7974L93.388 26.8454L90.2468 23.8289Z" fill="url(#paint13_linear_1018_1927)"/>
<path d="M105.45 33.7492C104.365 31.764 103.354 29.7906 102.679 27.6886C87.3472 27.3719 86.7495 16.264 86.7495 16.264C85.5698 8.17061 78.9985 8.85347 78.9985 8.85347C78.6561 8.84357 78.3275 8.84951 78.0148 8.87128C77.9217 10.6942 77.8762 12.5192 77.8584 14.3461C77.8584 14.5004 77.8584 14.6548 77.8584 14.8092C79.905 15.3911 80.3444 18.3997 80.3444 18.3997C86.6802 35.5029 103.639 33.9927 103.639 33.9927C104.27 33.9927 104.888 33.9254 105.486 33.8126C105.474 33.7908 105.462 33.769 105.45 33.7473V33.7492Z" fill="url(#paint14_linear_1018_1927)"/>
<path style="mix-blend-mode:screen" opacity="0.92" d="M93.8211 32.1282C90.8126 30.5665 82.9092 26.8058 80.3262 17.1428C83.2714 24.2822 86.3354 27.7401 93.8211 32.1282Z" fill="url(#paint15_linear_1018_1927)"/>
</g>
<defs>
<linearGradient id="paint0_linear_1018_1927" x1="113.474" y1="26.9582" x2="121.67" y2="22.2277" gradientUnits="userSpaceOnUse">
<stop stop-color="white"/>
<stop offset="0.9" stop-color="#231F20"/>
</linearGradient>
<linearGradient id="paint1_linear_1018_1927" x1="101.602" y1="21.4478" x2="132.066" y2="21.4478" gradientUnits="userSpaceOnUse">
<stop offset="0.14" stop-color="#AE1F23"/>
<stop offset="0.43" stop-color="#E02A27"/>
<stop offset="0.86" stop-color="#AE1F23"/>
</linearGradient>
<linearGradient id="paint2_linear_1018_1927" x1="135.337" y1="9.32254" x2="135.337" y2="22.2158" gradientUnits="userSpaceOnUse">
<stop offset="0.03" stop-color="white"/>
<stop offset="0.14" stop-color="#A89CA1"/>
<stop offset="0.9" stop-color="#231F20"/>
</linearGradient>
<linearGradient id="paint3_linear_1018_1927" x1="135.369" y1="15.0566" x2="146.421" y2="24.2169" gradientUnits="userSpaceOnUse">
<stop offset="0.14" stop-color="#AE1F23"/>
<stop offset="0.43" stop-color="#E02A27"/>
<stop offset="0.86" stop-color="#AE1F23"/>
</linearGradient>
<linearGradient id="paint4_linear_1018_1927" x1="134.391" y1="9.58367" x2="135.467" y2="23.5886" gradientUnits="userSpaceOnUse">
<stop stop-color="white"/>
<stop offset="1" stop-color="#231F20"/>
</linearGradient>
<linearGradient id="paint5_linear_1018_1927" x1="25.0761" y1="29.2859" x2="28.1599" y2="22.8096" gradientUnits="userSpaceOnUse">
<stop offset="0.05" stop-color="white"/>
<stop offset="0.9" stop-color="#231F20"/>
</linearGradient>
<linearGradient id="paint6_linear_1018_1927" x1="0" y1="21.4755" x2="34.7666" y2="21.4755" gradientUnits="userSpaceOnUse">
<stop offset="0.14" stop-color="#E02A27"/>
<stop offset="0.43" stop-color="#EC7C77"/>
<stop offset="0.86" stop-color="#E02A27"/>
</linearGradient>
<linearGradient id="paint7_linear_1018_1927" x1="48.719" y1="19.0924" x2="39.6379" y2="25.9428" gradientUnits="userSpaceOnUse">
<stop stop-color="white"/>
<stop offset="0.9" stop-color="#231F20"/>
</linearGradient>
<linearGradient id="paint8_linear_1018_1927" x1="49.2592" y1="29.084" x2="56.2699" y2="17.0498" gradientUnits="userSpaceOnUse">
<stop stop-color="white"/>
<stop offset="0.9" stop-color="#231F20"/>
</linearGradient>
<linearGradient id="paint9_linear_1018_1927" x1="35.7544" y1="21.6556" x2="57.7525" y2="21.6556" gradientUnits="userSpaceOnUse">
<stop offset="0.14" stop-color="#E02A27"/>
<stop offset="0.43" stop-color="#EC7C77"/>
<stop offset="0.86" stop-color="#E02A27"/>
</linearGradient>
<linearGradient id="paint10_linear_1018_1927" x1="23.2627" y1="15.213" x2="33.3572" y2="15.213" gradientUnits="userSpaceOnUse">
<stop stop-color="white"/>
<stop offset="1" stop-color="#231F20"/>
</linearGradient>
<linearGradient id="paint11_linear_1018_1927" x1="44.9323" y1="25.3768" x2="50.0033" y2="14.732" gradientUnits="userSpaceOnUse">
<stop stop-color="white"/>
<stop offset="1" stop-color="#231F20"/>
</linearGradient>
<linearGradient id="paint12_linear_1018_1927" x1="82.181" y1="25.4025" x2="85.7398" y2="21.8437" gradientUnits="userSpaceOnUse">
<stop stop-color="white"/>
<stop offset="0.9" stop-color="#231F20"/>
</linearGradient>
<linearGradient id="paint13_linear_1018_1927" x1="89.2631" y1="22.8571" x2="101.667" y2="26.9186" gradientUnits="userSpaceOnUse">
<stop stop-color="white"/>
<stop offset="0.9" stop-color="#231F20"/>
</linearGradient>
<linearGradient id="paint14_linear_1018_1927" x1="77.6486" y1="14.0788" x2="102.602" y2="31.3483" gradientUnits="userSpaceOnUse">
<stop offset="0.23" stop-color="#E02A27"/>
<stop offset="0.52" stop-color="#AE1F23"/>
</linearGradient>
<linearGradient id="paint15_linear_1018_1927" x1="79.9061" y1="17.3329" x2="95.7541" y2="35.6105" gradientUnits="userSpaceOnUse">
<stop stop-color="white"/>
<stop offset="0.43" stop-color="#A19F9F"/>
<stop offset="1" stop-color="#231F20"/>
</linearGradient>
<clipPath id="clip0_1018_1927">
<rect width="190" height="39.5328" fill="white"/>
</clipPath>
</defs>
</svg>
