<svg id="SvgjsSvg1021" width="288" height="288" xmlns="http://www.w3.org/2000/svg" version="1.1" xmlns:xlink="http://www.w3.org/1999/xlink" xmlns:svgjs="http://svgjs.com/svgjs"><defs id="SvgjsDefs1022"></defs><g id="SvgjsG1023"><svg xmlns="http://www.w3.org/2000/svg" fill="none" viewBox="0 0 128 128" width="288" height="288"><path fill="#ff8300" d="M47.4298 59.5436C50.1492 57.2543 52.0991 54.1843 53.015 50.7497C53.931 47.315 53.7687 43.6818 52.5503 40.3424C51.3319 37.003 49.1162 34.1191 46.2035 32.0813C43.2909 30.0436 39.8222 28.9506 36.2675 28.9506C32.7128 28.9506 29.244 30.0436 26.3314 32.0813C23.4187 34.1191 21.203 37.003 19.9846 40.3424C18.7662 43.6818 18.6039 47.315 19.5199 50.7497C20.4358 54.1843 22.3857 57.2543 25.1051 59.5436C21.1591 61.5879 17.8502 64.6766 15.5395 68.4728C13.2288 72.269 12.0049 76.6268 12.0015 81.071V101.87C12.0015 102.79 12.3667 103.672 13.0168 104.322C13.6669 104.972 14.5486 105.337 15.468 105.337H57.0669C57.9863 105.337 58.868 104.972 59.5181 104.322C60.1682 103.672 60.5334 102.79 60.5334 101.87V81.071C60.53 76.6268 59.3062 72.269 56.9954 68.4728C54.6847 64.6766 51.3759 61.5879 47.4298 59.5436V59.5436ZM25.8677 46.4053C25.8677 44.3484 26.4777 42.3377 27.6204 40.6275C28.7631 38.9173 30.3874 37.5843 32.2877 36.7972C34.188 36.0101 36.279 35.8041 38.2963 36.2054C40.3137 36.6067 42.1667 37.5971 43.6212 39.0516C45.0756 40.506 46.0661 42.359 46.4673 44.3764C46.8686 46.3937 46.6627 48.4848 45.8755 50.3851C45.0884 52.2854 43.7554 53.9096 42.0452 55.0523C40.335 56.195 38.3243 56.805 36.2675 56.805C33.5093 56.805 30.8641 55.7093 28.9137 53.759C26.9634 51.8086 25.8677 49.1634 25.8677 46.4053V46.4053ZM53.6003 98.4038H18.9346V81.071C18.9346 76.474 20.7607 72.0653 24.0113 68.8148C27.2618 65.5642 31.6705 63.7381 36.2675 63.7381C40.8644 63.7381 45.2731 65.5642 48.5236 68.8148C51.7742 72.0653 53.6003 76.474 53.6003 81.071V98.4038ZM109.065 70.8792C107.602 69.448 105.959 68.2128 104.178 67.2047H109.065C109.985 67.2047 110.867 66.8395 111.517 66.1893C112.167 65.5392 112.532 64.6575 112.532 63.7381V49.8718C112.532 44.3555 110.341 39.0651 106.44 35.1644C102.539 31.2638 97.2489 29.0724 91.7326 29.0724C86.2162 29.0724 80.9258 31.2638 77.0252 35.1644C73.1245 39.0651 70.9332 44.3555 70.9332 49.8718V63.7381C70.9332 64.6575 71.2984 65.5392 71.9485 66.1893C72.5986 66.8395 73.4803 67.2047 74.3997 67.2047H79.3916C75.7729 69.3421 72.7713 72.3827 70.6809 76.0288C68.5905 79.6748 67.4829 83.8013 67.4666 88.0041V101.87C67.4666 102.79 67.8318 103.672 68.4819 104.322C69.132 104.972 70.0138 105.337 70.9332 105.337H112.532C113.451 105.337 114.333 104.972 114.983 104.322C115.633 103.672 115.999 102.79 115.999 101.87V88.0041C116.034 84.8328 115.44 81.6861 114.249 78.7464C113.059 75.8067 111.297 73.1326 109.065 70.8792ZM88.266 63.7381V54.205C90.5663 54.5201 92.8988 54.5201 95.1991 54.205V63.7381C95.2018 64.4724 94.9711 65.1886 94.5405 65.7834V65.7834C94.216 66.1945 93.8026 66.5268 93.3313 66.7553C92.86 66.9837 92.343 67.1024 91.8192 67.1024C91.2955 67.1024 90.7785 66.9837 90.3072 66.7553C89.8359 66.5268 89.4225 66.1945 89.098 65.7834C88.6051 65.2105 88.313 64.4923 88.266 63.7381ZM77.8663 49.8718C77.8663 46.1943 79.3272 42.6673 81.9276 40.0669C84.5281 37.4665 88.055 36.0056 91.7326 36.0056C95.4101 36.0056 98.9371 37.4665 101.538 40.0669C104.138 42.6673 105.599 46.1943 105.599 49.8718V60.2715H102.132V49.8718C102.125 49.4561 102.043 49.0451 101.89 48.6585V48.4505C101.734 48.1067 101.523 47.7905 101.266 47.5146L100.954 47.2372H100.676C100.395 47.0681 100.092 46.9398 99.775 46.8559H99.2204L98.6657 46.4053H84.7994H84.4874H83.9328C83.6158 46.4891 83.3124 46.6175 83.0315 46.7866H82.7542L82.4422 47.0639C82.1846 47.3398 81.9738 47.656 81.8182 47.9999V48.2079C81.5181 48.7125 81.3511 49.285 81.3329 49.8718V60.2715H77.8663V49.8718ZM109.065 98.4038H74.3997V88.0041C74.4033 84.5386 75.4456 81.1538 77.3921 78.2865C79.3386 75.4193 82.0999 73.2015 85.3194 71.9192C86.2301 72.6132 87.2491 73.1519 88.3353 73.5138C89.9697 74.1142 91.7312 74.2829 93.4497 74.0035C95.1683 73.7242 96.7857 73.0063 98.1457 71.9192C100.335 72.7803 102.319 74.0912 103.97 75.7671C105.591 77.3647 106.877 79.27 107.752 81.3714C108.627 83.4728 109.074 85.7278 109.065 88.0041V98.4038Z" class="color37A8E0 svgShape"></path></svg></g></svg>