<svg width="128" height="128" viewBox="0 0 128 128" fill="none" xmlns="http://www.w3.org/2000/svg">
<path d="M64 109.906C38.6872 109.906 18.0938 89.3128 18.0938 64C18.0938 38.6872 38.6872 18.0938 64 18.0938C89.3128 18.0938 109.906 38.6872 109.906 64C109.906 89.3128 89.3128 109.906 64 109.906ZM64 12C35.3271 12 12 35.3271 12 64C12 92.6729 35.3271 116 64 116C92.6729 116 116 92.6729 116 64C116 35.3271 92.6729 12 64 12Z" fill="#626C71"/>
<path d="M70.8126 38.2519V38.2521L69.1194 61.7268C68.9266 64.3979 66.678 66.4903 64 66.4903C61.322 66.4903 59.0734 64.3981 58.8806 61.727L57.1872 38.2523C57.0513 36.3661 57.7115 34.4914 58.9997 33.1079C60.2875 31.7232 62.1101 30.9292 64 30.9292C65.8899 30.9292 67.7125 31.7232 69.0013 33.1091C70.2885 34.4914 70.9487 36.3661 70.8126 38.2519M63.9998 24.8355C60.4232 24.8355 56.9743 26.338 54.5386 28.9565C52.1022 31.5737 50.8521 35.1215 51.1093 38.6904L52.8027 62.1656C53.224 68.0076 58.1425 72.584 64 72.584C69.8571 72.584 74.7756 68.0076 75.1973 62.1656L76.8905 38.6904V38.6906C77.1481 35.1217 75.8983 31.5737 73.4622 28.9577C71.0257 26.338 67.5766 24.8355 63.9998 24.8355" fill="#626C71"/>
<path d="M68.3622 92.7076C68.3622 95.1124 66.4053 97.0687 64.0001 97.0687C61.5949 97.0687 59.6382 95.1124 59.6382 92.7076V88.3019C59.6382 85.8971 61.5951 83.9408 64.0003 83.9408C66.4055 83.9408 68.3622 85.8971 68.3622 88.3019V92.7076ZM64.0001 77.847C58.2348 77.847 53.5444 82.537 53.5444 88.3019V92.7076C53.5444 98.4725 58.235 103.162 64.0003 103.162C69.7656 103.162 74.4559 98.4725 74.4559 92.7076V88.3019C74.4559 82.537 69.7654 77.847 64.0001 77.847Z" fill="#626C71"/>
</svg>
