<svg id="SvgjsSvg1012" width="288" height="288" xmlns="http://www.w3.org/2000/svg" version="1.1" xmlns:xlink="http://www.w3.org/1999/xlink" xmlns:svgjs="http://svgjs.com/svgjs"><defs id="SvgjsDefs1013"></defs><g id="SvgjsG1014"><svg xmlns="http://www.w3.org/2000/svg" xmlns:svgjs="http://svgjs.com/svgjs" xmlns:xlink="http://www.w3.org/1999/xlink" viewBox="0 0 288 288" width="288" height="288"><svg xmlns="http://www.w3.org/2000/svg" fill="none" viewBox="0 0 128 128" width="288" height="288"><path fill="#111921" d="M64 18.2593C73.0467 18.2593 81.8902 20.9419 89.4122 25.968C96.9342 30.994 102.797 38.1377 106.259 46.4958C109.721 54.8538 110.627 64.0507 108.862 72.9236C107.097 81.7964 102.741 89.9466 96.3436 96.3436C89.9466 102.741 81.7964 107.097 72.9236 108.862C64.0508 110.627 54.8538 109.721 46.4958 106.259C38.1378 102.797 30.994 96.9342 25.968 89.4122C20.9419 81.8902 18.2593 73.0466 18.2593 64C18.272 51.8727 23.0952 40.2458 31.6705 31.6705C40.2458 23.0952 51.8727 18.272 64 18.2593M64 12C53.7154 12 43.6617 15.0497 35.1104 20.7636C26.559 26.4774 19.894 34.5987 15.9583 44.1005C12.0225 53.6022 10.9928 64.0577 12.9992 74.1447C15.0056 84.2317 19.9581 93.4972 27.2305 100.77C34.5028 108.042 43.7683 112.994 53.8553 115.001C63.9423 117.007 74.3978 115.977 83.8995 112.042C93.4013 108.106 101.523 101.441 107.236 92.8896C112.95 84.3383 116 74.2846 116 64C116 50.2087 110.521 36.9823 100.77 27.2304C91.0177 17.4786 77.7913 12 64 12V12Z" class="colorDA2C21 svgShape colorda2c21"></path><path fill="#111921" d="M65 18.2593C66.9736 18.2593 70.458 21.7837 73.4325 29.5163C76.9358 38.6259 78.8621 50.8748 78.8621 64C78.8621 77.1252 76.9736 89.3741 73.4325 98.4837C70.458 106.187 66.983 109.741 65 109.741C63.017 109.741 59.542 106.216 56.5675 98.4837C53.0737 89.3741 51.1379 77.1252 51.1379 64C51.1379 50.8748 53.0264 38.6259 56.5675 29.5163C59.5515 21.7741 63.0359 18.2593 65 18.2593ZM65 12C53.9518 12 45 35.2844 45 64C45 92.7156 53.9518 116 65 116C76.0482 116 85 92.7156 85 64C85 35.2844 76.0482 12 65 12V12Z" class="colorDA2C21 svgShape colorda2c21"></path><path stroke="#111921" stroke-miterlimit="10" stroke-width="6.5" d="M19 80H111M19 47H111" class="colorStrokeDA2C21 svgStroke colorStrokee1251b"></path></svg></svg></g></svg>