<svg width="240" height="240" viewBox="0 0 240 240" fill="none" xmlns="http://www.w3.org/2000/svg">
<path d="M42.5725 99.5087C43.3876 105.159 43.7621 110.722 45.0508 116.053C50.9987 140.88 65.8025 158.58 88.9553 169.276C98.6152 173.737 108.881 175.829 119.466 175.796C138.202 175.741 154.933 169.893 169.351 157.732C182.668 146.497 191.293 132.41 194.983 115.381C195.842 111.416 196.15 107.318 196.635 103.265C196.701 102.747 196.282 102.163 196.117 101.701C196.426 101.106 196.789 100.401 197.34 99.3435H199.091C211.394 99.3435 223.687 99.3435 235.99 99.3435C236.519 99.3435 237.081 99.4316 237.565 99.2994C239.019 98.9029 239.46 99.8061 239.383 100.875C238.986 106.029 238.579 111.184 237.984 116.306C236.783 126.572 233.809 136.408 229.822 145.881C226.143 154.637 221.319 162.832 215.525 170.399C198.673 192.451 176.863 207.133 149.999 214.227C142.266 216.264 134.413 217.421 126.405 217.828C95.9717 219.359 68.7985 210.647 45.0508 191.702C24.1339 175.025 10.5308 153.481 4.01011 127.53C1.88427 119.082 0.694677 110.468 0.727721 101.734C0.727721 101.018 0.727721 100.313 0.727721 99.4867H42.5725V99.5087Z" fill="#DA2C21"/>
<path d="M184.595 85.1674V46.8914C186.699 46.8914 188.737 46.7813 190.742 46.9685C191.27 47.0126 191.722 47.9819 192.251 48.5656C199.752 44.0056 208.024 45.9772 212.606 51.7709C214.93 49.4138 217.441 47.354 220.757 46.583C229.502 44.5673 238.578 48.9732 239.349 59.4041C239.988 67.9184 239.482 76.5209 239.482 85.2004H232.531C232.531 84.4515 232.531 83.7575 232.531 83.0526C232.531 76.4438 232.553 69.835 232.509 63.2262C232.509 61.8493 232.366 60.4395 232.036 59.1177C231.232 55.9014 229.249 53.7756 225.867 53.2248C222.552 52.6851 218.939 54.2602 217.408 57.4765C216.406 59.6023 215.833 62.1027 215.756 64.4598C215.536 70.9254 215.679 77.4021 215.668 83.8787C215.668 84.2642 215.613 84.6497 215.58 85.1784H208.409C208.409 84.3523 208.409 83.5923 208.409 82.8213C208.387 75.6177 208.464 68.4141 208.31 61.2105C208.244 57.9391 206.911 55.1304 203.651 53.7756C200.556 52.4758 197.659 53.0816 195.203 55.3066C193.121 57.1901 191.865 59.5913 191.832 62.4441C191.766 69.1851 191.777 75.9261 191.766 82.6671C191.766 83.4491 191.766 84.2312 191.766 85.1674H184.584H184.595Z" fill="#DA2C21"/>
<path d="M109.674 85.2335H102.47C102.437 84.5396 102.382 83.8457 102.382 83.1517C102.382 76.1464 102.426 69.1521 102.338 62.1467C102.305 59.316 101.6 56.6064 99.2207 54.7449C95.4867 51.815 89.8802 52.9054 87.479 57.2893C86.3885 59.2939 85.6616 61.7282 85.5845 64.0082C85.3422 70.9915 85.4964 77.9969 85.4964 85.1674H78.447C78.4029 84.5616 78.3148 83.9778 78.3148 83.4051C78.3148 71.9167 78.3478 60.4174 78.2817 48.9291C78.2817 47.2439 78.8435 46.7152 80.4516 46.8363C82.0267 46.9465 83.6018 46.8584 85.254 46.8584C85.3972 47.6294 85.5074 48.2462 85.6616 49.1274C89.0321 46.5389 92.766 45.845 96.7644 46.2856C100.774 46.7372 103.957 48.6538 106.094 51.3854C108.903 49.7552 111.37 47.7065 114.201 46.7923C123.53 43.7743 132.815 50.0636 133.377 59.9328C133.818 67.6981 133.498 75.5185 133.52 83.3059C133.52 83.8897 133.52 84.4735 133.52 85.1454C131.009 85.3877 128.883 85.1344 126.493 85.2225C126.35 85.2225 126.405 85.3437 126.405 84.8039C126.405 84.3193 126.394 83.6694 126.394 83.0085C126.394 82.1164 126.383 81.5436 126.383 80.9047C126.383 74.3069 126.416 67.6981 126.185 61.1114C126.03 56.6724 123.508 53.8307 119.774 53.2469C115.886 52.6411 112.009 54.8881 110.533 58.8313C109.993 60.2742 109.729 61.9044 109.707 63.4465C109.619 70.639 109.674 77.8316 109.674 85.2555V85.2335Z" fill="#DA2C21"/>
<path d="M75.9687 66.079C75.9687 77.5343 67.3772 86.1258 55.966 86.1147C44.8853 86.1037 36.1616 77.3691 36.1286 66.2443C36.0845 54.9212 44.8302 46.1315 56.1422 46.1425C67.5314 46.1535 75.9797 54.6458 75.9687 66.079ZM68.6439 66.1451C68.6549 58.8975 63.2357 53.2139 56.2634 53.1808C48.8726 53.1478 43.5525 58.6001 43.6076 66.1782C43.6626 73.4699 49.2691 79.2195 56.2744 79.1535C63.2577 79.0874 68.6329 73.4479 68.6439 66.1451Z" fill="#DA2C21"/>
<path d="M181.06 46.7923V85.1454H174C173.934 84.4405 173.868 83.8016 173.813 83.2068C171.577 84.055 169.418 85.1895 167.127 85.6962C156.718 87.9982 147.785 81.4114 147.322 70.8373C146.981 63.1271 147.245 55.3837 147.245 47.6514C147.245 47.4642 147.344 47.2769 147.433 46.9355H154.427C154.46 47.6845 154.526 48.3894 154.526 49.0834C154.526 56.0226 154.482 62.9618 154.559 69.8901C154.614 74.8907 157.346 78.0079 162.258 78.8891C167.964 79.9134 173.67 75.4084 173.813 69.5266C173.967 62.8627 173.89 56.1768 173.901 49.5129C173.901 47.6845 174.844 46.7703 176.732 46.7703C178.108 46.7703 179.474 46.7703 181.082 46.7703L181.06 46.7923Z" fill="#DA2C21"/>
<path d="M36.9551 76.6312C30.6877 84.9693 22.2945 88.0093 13.659 85.1896C5.67337 82.5681 0.0778898 74.8138 0.000787057 66.2443C-0.0763157 57.73 5.51917 49.7553 13.4167 47.1118C21.9751 44.248 30.6547 47.1339 36.5035 54.745C34.8512 56.4082 33.199 58.0714 31.5468 59.7236C24.3322 50.1519 14.5512 52.6522 10.2334 57.7961C6.27916 62.4993 6.66468 70.8925 11.3349 75.5077C17.0956 81.2023 23.1537 80.255 31.8002 72.2143C33.4744 73.6462 35.1707 75.0891 36.9551 76.6202V76.6312Z" fill="#DA2C21"/>
<path d="M137.034 47.0348H144.127V85.1456H137.034V47.0348Z" fill="#DA2C21"/>
<path d="M141.198 36.5708C137.199 36.5487 134.446 33.729 134.49 29.6646C134.523 25.9085 137.552 22.9016 141.308 22.9126C145.075 22.9126 148.214 26.0958 148.192 29.8628C148.17 33.773 145.229 36.5928 141.209 36.5708H141.198Z" fill="#DA2C21"/>
</svg>
