<svg width="432" height="107" viewBox="0 0 432 107" fill="none" xmlns="http://www.w3.org/2000/svg">
<g clip-path="url(#clip0_103_3)">
<path d="M201.99 84.71V97.7C200.9 97.87 199.82 97.96 198.73 97.96C197.64 97.96 196.56 97.87 195.47 97.7V86.14C195.47 83.58 194.25 82.23 191.82 82.23C190.17 82.23 189.13 82.84 188.34 83.4C188.38 83.83 188.43 84.27 188.43 84.7V97.69C187.34 97.86 186.26 97.95 185.17 97.95C184.08 97.95 183 97.86 181.95 97.69V86.13C181.95 83.57 180.69 82.22 178.26 82.22C176.83 82.22 175.7 82.61 174.91 83.09V97.69C173.82 97.86 172.74 97.95 171.65 97.95C170.56 97.95 169.52 97.86 168.44 97.69V79.79C169.92 78.53 173.78 76.36 178.87 76.36C181.78 76.36 184.04 77.1 185.61 78.31C187.26 77.27 189.65 76.36 192.43 76.36C198.91 76.36 201.99 79.88 201.99 84.7" fill="#E12827"/>
<path d="M221.41 87.41C221.41 84.02 219.67 81.81 216.63 81.81C213.59 81.81 211.81 84.03 211.81 87.41C211.81 90.79 213.59 93.02 216.63 93.02C219.67 93.02 221.41 90.76 221.41 87.41ZM205.33 87.41C205.33 80.76 210.11 76.37 216.67 76.37C223.23 76.37 227.92 80.67 227.92 87.41C227.92 94.15 223.14 98.4 216.58 98.4C210.02 98.4 205.33 94.23 205.33 87.41Z" fill="#E12827"/>
<path d="M251.74 85.19V97.7C250.65 97.87 249.57 97.96 248.48 97.96C247.39 97.96 246.31 97.87 245.22 97.7V86.23C245.22 83.27 243.61 82.23 241.31 82.23C239.79 82.23 238.57 82.66 237.83 83.1V97.7C236.74 97.87 235.66 97.96 234.57 97.96C233.48 97.96 232.44 97.87 231.36 97.7V79.8C232.97 78.37 236.66 76.37 241.79 76.37C248.65 76.37 251.74 80.11 251.74 85.19Z" fill="#E12827"/>
<path d="M272.9 96.05C271.42 97.22 269.34 98.35 266.21 98.35C261.47 98.35 257.91 96.35 257.91 91.31V82.71H254.39C254.26 81.88 254.17 80.97 254.17 80.02C254.17 79.15 254.26 78.28 254.39 77.41H257.91V71.98C259.04 71.81 260.13 71.72 261.21 71.72C262.29 71.72 263.34 71.81 264.34 71.98V77.41H271.55C271.72 78.24 271.85 79.11 271.85 79.97C271.85 80.93 271.72 81.79 271.55 82.71H264.34V89.7C264.34 92.05 265.43 92.83 267.34 92.83C268.56 92.83 269.51 92.22 270.21 91.61C271.47 92.35 272.69 94.3 272.9 96.04" fill="#E12827"/>
<path d="M296.39 77.5C294.61 90.67 289.57 100.35 280.27 107C278.27 106.3 276.97 104.39 276.4 102.52C278.7 100.7 280.74 98.83 282.05 97.04C277.84 90.52 275.92 84.87 274.32 77.44C275.23 77.22 277.23 76.96 279.06 76.96C279.84 76.96 280.75 77 281.49 77.09C282.27 81.87 283.7 87 285.49 91.12C285.71 91.6 285.84 91.99 285.92 92.29C286.01 91.86 286.14 91.42 286.27 91.12C288.05 86.95 289.05 81.86 289.66 77.09C290.49 77 291.4 76.96 292.22 76.96C293.74 76.96 295.22 77.18 296.39 77.48" fill="#E12827"/>
<path d="M335.92 84.79V97.76C334.84 97.93 333.75 98.02 332.67 98.02C331.59 98.02 330.5 97.93 329.42 97.76V86.23C329.42 83.67 328.21 82.33 325.78 82.33C324.13 82.33 323.09 82.94 322.31 83.5C322.35 83.93 322.4 84.37 322.4 84.8V97.77C321.32 97.94 320.23 98.03 319.15 98.03C318.07 98.03 316.98 97.94 315.94 97.77V86.24C315.94 83.68 314.68 82.34 312.25 82.34C310.82 82.34 309.69 82.73 308.91 83.21V97.78C307.83 97.95 306.74 98.04 305.66 98.04C304.58 98.04 303.54 97.95 302.45 97.78V79.91C303.92 78.65 307.78 76.48 312.86 76.48C315.77 76.48 318.02 77.22 319.58 78.43C321.23 77.39 323.61 76.48 326.39 76.48C332.85 76.48 335.93 79.99 335.93 84.81" fill="#E12827"/>
<path d="M355.31 87.48C355.31 84.1 353.58 81.89 350.54 81.89C347.5 81.89 345.73 84.1 345.73 87.48C345.73 90.86 347.51 93.07 350.54 93.07C353.57 93.07 355.31 90.81 355.31 87.48ZM339.27 87.48C339.27 80.85 344.04 76.47 350.59 76.47C357.14 76.47 361.82 80.76 361.82 87.48C361.82 94.2 357.05 98.45 350.5 98.45C343.95 98.45 339.27 94.29 339.27 87.48Z" fill="#E12827"/>
<path d="M380.07 87.52C380.07 84.4 378.21 82.14 374.82 82.14C373.73 82.14 372.69 82.31 371.74 82.66V92.5C372.87 92.85 373.86 92.98 374.82 92.98C378.16 92.98 380.07 90.86 380.07 87.52ZM386.57 87.26C386.57 94.24 381.84 98.45 374.38 98.45C370.96 98.45 367.66 97.71 365.27 96.46V69.27C366.35 69.05 367.44 69.01 368.48 69.01C369.52 69.01 370.65 69.05 371.73 69.27V77.12C372.73 76.77 373.85 76.6 375.24 76.6C381.7 76.6 386.56 80.29 386.56 87.27" fill="#E12827"/>
<path d="M390.17 97.76V77.16C391.21 76.99 392.29 76.9 393.38 76.9C394.47 76.9 395.5 76.99 396.63 77.16V97.76C395.59 97.93 394.51 98.02 393.38 98.02C392.34 98.02 391.26 97.93 390.17 97.76ZM389.52 70.61C389.52 68.49 391.25 66.75 393.42 66.75C395.59 66.75 397.32 68.48 397.32 70.61C397.32 72.74 395.54 74.51 393.42 74.51C391.3 74.51 389.52 72.73 389.52 70.61Z" fill="#E12827"/>
<path d="M401.27 97.76V69.36C402.27 69.19 403.35 69.1 404.43 69.1C405.51 69.1 406.64 69.19 407.77 69.36V97.76C406.77 97.93 405.65 98.02 404.56 98.02C403.47 98.02 402.39 97.93 401.27 97.76Z" fill="#E12827"/>
<path d="M425.77 85.44C425.77 83.45 424.82 81.62 422.17 81.49C419.7 81.49 418.27 83.1 417.96 85.44H425.76H425.77ZM431.67 89.08H417.97C418.36 91.99 419.96 93.29 423.04 93.29C425.64 93.29 427.51 92.25 429.11 91.21C430.45 92.25 431.28 93.99 431.45 95.59C429.63 96.98 426.81 98.49 422.34 98.49C415.96 98.49 411.37 94.54 411.37 87.65C411.37 81.14 415.97 76.59 422.12 76.59C427.93 76.59 431.88 80.28 431.88 86.04C431.88 87.08 431.84 88.03 431.66 89.07" fill="#E12827"/>
<path d="M89.8 41.55C92.79 38.58 94.29 35 94.29 30.8C94.29 26.6 92.79 23.02 89.8 20.05C86.83 17.07 83.24 15.57 79.03 15.57C74.82 15.57 71.23 17.06 68.26 20.05C65.27 23.02 63.77 26.6 63.77 30.8C63.77 35 65.27 38.58 68.26 41.55C71.23 44.54 74.83 46.03 79.03 46.03C83.23 46.03 86.83 44.54 89.8 41.55ZM57.43 52.35C51.48 46.4 48.51 39.22 48.51 30.8C48.51 22.38 51.48 15.23 57.43 9.27997C63.4 3.32998 70.6 0.349976 79.03 0.349976C87.46 0.349976 94.64 3.32998 100.6 9.27997C106.56 15.23 109.55 22.41 109.55 30.8C109.55 39.19 106.57 46.4 100.6 52.35C94.64 58.28 87.45 61.25 79.03 61.25C70.61 61.25 63.4 58.28 57.43 52.35Z" fill="#E12827"/>
<path d="M224.45 30.55C224.45 30.36 224.45 30.18 224.44 29.99V29.94C224.3 21.79 221.32 14.8 215.51 8.98003C209.54 3.01003 202.35 0.0300293 193.91 0.0300293C185.47 0.0300293 178.3 3.01003 172.34 8.98003C171.89 9.43003 171.45 9.89003 171.04 10.36C170.61 9.89003 170.16 9.43003 169.71 8.98003C163.74 3.01003 156.55 0.0300293 148.14 0.0300293C139.73 0.0300293 132.51 3.01003 126.54 8.98003C120.59 14.94 117.62 22.13 117.62 30.55V61.07H132.88V30.55C132.88 26.34 134.37 22.75 137.37 19.78C140.34 16.79 143.93 15.29 148.14 15.29C152.35 15.29 155.94 16.79 158.91 19.78C161.9 22.75 163.4 26.34 163.4 30.55V61.07H178.66V30.55C178.66 26.34 180.16 22.75 183.15 19.78C186.12 16.79 189.71 15.29 193.92 15.29C198.13 15.29 201.72 16.79 204.69 19.78C207.68 22.75 209.18 26.34 209.18 30.55H209.19V39.51H209.18V61.07H224.46V39.51H224.45V30.55Z" fill="#E12827"/>
<path d="M431.75 30.14C431.66 21.89 428.69 14.82 422.81 8.95C416.85 2.99 409.65 0 401.21 0C392.77 0 385.6 2.98 379.64 8.95C379.19 9.4 378.75 9.86 378.34 10.33C377.91 9.86 377.46 9.4 377.01 8.95C371.05 2.99 363.86 0 355.44 0C347.02 0 339.81 2.98 333.84 8.95C327.89 14.91 324.92 22.1 324.92 30.52V61.04H340.18V30.52C340.18 26.31 341.68 22.72 344.67 19.75C347.64 16.76 351.23 15.26 355.44 15.26C359.65 15.26 363.24 16.76 366.21 19.75C369.2 22.72 370.7 26.31 370.7 30.52V61.04H385.96V30.52C385.96 26.31 387.46 22.72 390.45 19.75C393.42 16.76 397.01 15.26 401.22 15.26C405.43 15.26 409.02 16.76 411.99 19.75C414.98 22.72 416.48 26.31 416.48 30.52V61.04H431.76V30.15L431.75 30.14Z" fill="#E12827"/>
<path d="M247.43 0.5H232.12V61.06H247.43V0.5Z" fill="#E12827"/>
<path d="M41.3 45.92H30.47C30.47 45.92 30.35 45.92 30.28 45.92C26.1 45.92 22.54 44.44 19.59 41.47C16.62 38.52 15.14 34.96 15.14 30.78C15.14 26.6 16.62 23.04 19.59 20.09C22.54 17.12 26.1 15.64 30.28 15.64C30.34 15.64 30.46 15.63 30.46 15.63H39.87L52.19 0.5H30.45C30.39 0.5 30.34 0.5 30.28 0.5C21.91 0.5 14.77 3.46 8.85 9.38C2.95 15.3 0 22.43 0 30.78C0 39.13 2.95 46.29 8.85 52.21C14.77 58.11 21.91 61.06 30.28 61.06C30.34 61.06 30.4 61.06 30.46 61.06H52.58L41.3 45.92Z" fill="#E12827"/>
<path d="M317.17 21.14H301.74V30.64C301.7 34.82 300.19 38.39 297.21 41.35C294.2 44.37 290.57 45.89 286.32 45.89C282.07 45.89 278.43 44.38 275.43 41.35C272.41 38.34 270.89 34.71 270.89 30.46V21.1H255.46V30.82C255.55 39.19 258.55 46.35 264.47 52.29C270.5 58.3 277.78 61.31 286.3 61.31C294.82 61.31 302.08 58.3 308.11 52.29C314.14 46.26 317.16 38.98 317.16 30.46V22.71V21.14H317.17Z" fill="#E12827"/>
<path d="M2.84 97.57H0V82.34H2.77V86.29H3.06C3.91 83.55 5.86 81.95 8.57 81.95C11.57 81.95 13.04 83.74 13.33 86.51H13.62C14.34 83.71 16.13 81.95 19.16 81.95C22.55 81.95 24.15 84.17 24.15 87.49V97.56H21.31V88.17C21.31 86.08 20.4 84.52 18.02 84.52C15.25 84.52 13.49 86.25 13.49 88.86V97.56H10.65V88.17C10.65 86.08 9.74 84.52 7.36 84.52C4.65 84.52 2.83 86.25 2.83 88.86V97.56L2.84 97.57Z" fill="#E12827"/>
<path d="M35.76 91.9V91.05H31.29C29.3 91.05 28.16 91.83 28.16 93.33C28.16 94.54 28.91 95.61 31.16 95.61C33.96 95.61 35.76 94.05 35.76 91.89M35.89 93.94H35.6C34.85 96.45 32.89 97.89 30.19 97.89C27.32 97.89 25.46 96.59 25.46 93.65C25.46 91.01 27.16 89.08 30.87 89.08H35.76V87.84C35.76 85.56 34.88 84.32 32.4 84.32C30.35 84.32 29.2 85.33 28.72 87.35L26.05 86.7C26.67 83.77 28.85 81.97 32.51 81.97C36.75 81.97 38.61 84.02 38.61 87.81V97.56H35.9V93.94H35.89Z" fill="#E12827"/>
<path d="M43.64 97.57H40.8V82.34H43.57V86.29H43.86C44.71 83.58 46.73 81.95 49.37 81.95C52.76 81.95 54.29 84.17 54.29 87.49V97.56H51.45V88.17C51.45 86.08 50.6 84.52 48.16 84.52C45.45 84.52 43.63 86.25 43.63 88.86V97.56L43.64 97.57Z" fill="#E12827"/>
<path d="M65.91 91.9V91.05H61.44C59.45 91.05 58.31 91.83 58.31 93.33C58.31 94.54 59.06 95.61 61.31 95.61C64.11 95.61 65.91 94.05 65.91 91.89M66.04 93.94H65.75C65 96.45 63.04 97.89 60.34 97.89C57.47 97.89 55.61 96.59 55.61 93.65C55.61 91.01 57.31 89.08 61.02 89.08H65.91V87.84C65.91 85.56 65.03 84.32 62.55 84.32C60.5 84.32 59.35 85.33 58.87 87.35L56.2 86.7C56.82 83.77 59 81.97 62.65 81.97C66.89 81.97 68.75 84.02 68.75 87.81V97.56H66.04V93.94Z" fill="#E12827"/>
<path d="M72.88 87.66C72.88 89.55 73.92 90.69 76.69 90.69C79.46 90.69 80.6 89.58 80.6 87.66C80.6 85.74 79.26 84.59 76.62 84.59C73.98 84.59 72.87 85.83 72.87 87.66M82.29 98.78C82.29 97.8 81.61 97.05 79.91 97.05H74.43C72.54 97.05 71.66 98.06 71.66 99.01C71.66 100.38 72.77 100.97 76.91 100.97C81.28 100.97 82.29 100.22 82.29 98.79M76.81 103.09C71.07 103.12 69.38 101.85 69.38 99.83C69.38 98.49 70.68 97.55 72.8 97.09V96.93C71.66 96.7 70.91 96.08 70.91 95.01C70.91 94.23 71.56 93.54 72.48 93.05L73.62 92.33C71.44 91.58 70.26 89.92 70.26 87.67C70.26 84.21 72.71 82.35 76.85 82.35H84.25V84.6H82.42C81.6 84.6 80.63 84.53 79.26 84.4V84.69C81.35 85.11 83.08 86 83.08 88.21C83.08 91.05 80.86 92.74 76.62 92.74C75.64 92.74 74.79 92.64 74.04 92.41L73.62 93.09C73.36 93.51 73.16 93.81 73.16 94.13C73.16 94.78 73.71 95.04 74.76 95.04C76.46 95.04 78.28 95.01 79.94 95.01C83.04 95.01 84.64 96.35 84.64 98.66C84.64 101.66 82.72 103.09 76.82 103.06" fill="#E12827"/>
<path d="M87.52 88.74H96.42C96.29 85.84 94.95 84.21 92.15 84.21C89.35 84.21 87.84 85.71 87.52 88.74ZM84.65 90.08C84.65 84.99 87.62 81.96 92.21 81.96C96.8 81.96 99.06 84.76 99.06 88.97C99.06 89.43 99.03 90.11 98.96 90.79H87.48C87.71 93.89 89.34 95.58 92.27 95.58C95.01 95.58 95.95 94.21 96.44 92.52L98.92 93.2C98.17 96.1 96.21 97.93 92.27 97.93C87.54 97.93 84.64 95.13 84.64 90.07" fill="#E12827"/>
<path d="M111.08 90.6V89.43C111.08 86.53 109.35 84.54 106.61 84.54C103.87 84.54 102.34 86.3 102.34 90.02C102.34 93.74 103.71 95.43 106.61 95.43C109.32 95.43 111.08 93.57 111.08 90.61M111.08 93.51H110.88C110.13 96.12 108.24 97.98 105.37 97.98C101.65 97.98 99.53 95.18 99.53 90.03C99.53 84.88 101.71 81.98 105.43 81.98C108.43 81.98 110.13 83.81 110.88 86.41H111.08V76.66H113.92V97.59H111.08V93.51Z" fill="#E12827"/>
<path d="M132.53 89.98C132.53 86.3 131.19 84.53 128.29 84.53C125.55 84.53 123.79 86.42 123.79 89.42V90.59C123.79 93.46 125.55 95.45 128.29 95.45C131.03 95.45 132.53 93.62 132.53 89.97M123.79 86.35H124.02C124.77 83.74 126.5 81.95 129.43 81.95C133.24 81.95 135.33 84.82 135.33 89.97C135.33 95.12 133.15 97.96 129.56 97.96C126.59 97.96 124.73 96.07 123.98 93.46H123.79V97.57H120.95V76.64H123.79V86.35Z" fill="#E12827"/>
<path d="M134.94 102.99L135.4 100.38C136.08 100.51 136.7 100.61 137.36 100.61C139.15 100.61 140.16 100.15 141.37 97.45L134.91 82.36H138.04L140 87.81C140.72 89.8 141.79 92.7 142.58 95.08H143.07C143.89 92.63 144.86 89.83 145.51 87.84L147.37 82.36H150.4L143.94 97.78C142.34 101.56 140.48 103.19 137.26 103.19C136.31 103.19 135.63 103.09 134.95 102.99" fill="#E12827"/>
<path d="M270.9 8.10002C270.9 3.84001 267.45 0.390015 263.19 0.390015C258.93 0.390015 255.48 3.84001 255.48 8.10002C255.48 12.36 258.93 15.81 263.19 15.81C267.45 15.81 270.9 12.36 270.9 8.10002Z" fill="#E12827"/>
<path d="M317.18 8.10002C317.18 3.84001 313.73 0.390015 309.47 0.390015C305.21 0.390015 301.76 3.84001 301.76 8.10002C301.76 12.36 305.21 15.81 309.47 15.81C313.73 15.81 317.18 12.36 317.18 8.10002Z" fill="#E12827"/>
</g>
<defs>
<clipPath id="clip0_103_3">
<rect width="431.89" height="107" fill="white"/>
</clipPath>
</defs>
</svg>
