<?xml version="1.0" encoding="utf-8"?>
<!-- Generator: Adobe Illustrator 27.0.1, SVG Export Plug-In . SVG Version: 6.00 Build 0)  -->
<svg version="1.1" id="Layer_1" xmlns="http://www.w3.org/2000/svg" xmlns:xlink="http://www.w3.org/1999/xlink" x="0px" y="100px"
	 viewBox="0 0 225.5 183.6" style="enable-background:new 0 0 225.5 183.6;" xml:space="preserve">
<style type="text/css">
	.st0{fill:#FFFFFF;}
</style>
<g>
	<g>
		<path class="st0" d="M40.1,72.1c0.8,5.3,1.1,10.5,2.3,15.6c5.6,23.4,19.5,40,41.3,50.1c9.1,4.2,18.7,6.2,28.7,6.1
			c17.6-0.1,33.4-5.6,46.9-17C171.9,116.3,180,103,183.5,87c0.8-3.7,1.1-7.6,1.5-11.4c0.1-0.5,0.1-2.3,0.2-3.7c0.3,0,1.5,0,2.1,0
			c11.6,0,23.1,0,34.7,0c0.5,0,1,0.1,1.5,0c1.4-0.4,1.8,0.5,1.7,1.5c-0.4,4.8-0.8,9.7-1.3,14.5c-1.1,9.7-3.9,18.9-7.7,27.8
			c-3.5,8.2-8,15.9-13.4,23.1c-15.9,20.7-36.4,34.6-61.7,41.2c-7.3,1.9-14.7,3-22.2,3.4c-28.6,1.4-54.2-6.8-76.5-24.6
			c-19.7-15.7-32.5-36-38.6-60.4c-2-8-3.1-16-3.1-24.3c0-0.7,0-1.3,0-2.1C14,72.1,27.1,72.1,40.1,72.1z"/>
		<path class="st0" d="M173.7,58.6c0-12,0-23.9,0-36c2,0,3.9-0.1,5.8,0.1c0.5,0,0.9,1,1.4,1.5c7.1-4.3,14.8-2.4,19.2,3
			c2.2-2.2,4.6-4.2,7.7-4.9c8.2-1.9,16.8,2.2,17.5,12.1c0.6,8,0.1,16.1,0.1,24.3c-2,0-4.1,0-6.5,0c0-0.7,0-1.4,0-2
			c0-6.2,0-12.4,0-18.7c0-1.3-0.1-2.6-0.4-3.9c-0.8-3-2.6-5-5.8-5.5c-3.1-0.5-6.5,1-8,4c-0.9,2-1.5,4.4-1.6,6.6
			c-0.2,6.1-0.1,12.2-0.1,18.3c0,0.4,0,0.7-0.1,1.2c-2.2,0-4.3,0-6.7,0c0-0.8,0-1.5,0-2.2c0-6.8,0-13.6-0.1-20.3
			c-0.1-3.1-1.3-5.7-4.4-7c-2.9-1.2-5.6-0.7-8,1.4c-2,1.8-3.1,4-3.2,6.7c-0.1,6.3,0,12.7-0.1,19c0,0.7,0,1.5,0,2.4
			C178.1,58.6,176,58.6,173.7,58.6z"/>
		<path class="st0" d="M103.2,58.6c-2.3,0-4.4,0-6.8,0c0-0.7-0.1-1.3-0.1-2c0-6.6,0-13.2,0-19.8c0-2.7-0.7-5.2-2.9-7
			c-3.5-2.8-8.8-1.7-11,2.4c-1,1.9-1.7,4.2-1.8,6.3c-0.2,6.6-0.1,13.2-0.1,19.9c-2.2,0-4.4,0-6.6,0c0-0.6-0.1-1.1-0.1-1.7
			c0-10.8,0-21.6,0-32.4c0-1.6,0.5-2.1,2-2c1.5,0.1,3,0,4.5,0c0.1,0.7,0.2,1.3,0.4,2.1c3.2-2.4,6.7-3.1,10.4-2.7
			c3.8,0.4,6.8,2.2,8.8,4.8c2.6-1.5,5-3.5,7.6-4.3c8.8-2.8,17.5,3.1,18,12.4c0.4,7.3,0.1,14.7,0.1,22c0,0.6,0,1.1,0,1.7
			c-2.4,0.2-4.4,0-6.6,0.1c-0.1,0-0.1,0.1-0.1-0.4c0-0.5,0-1.1,0-1.7c0-0.8,0-1.4,0-2c0-6.2,0-12.4-0.2-18.6c-0.1-4.2-2.5-6.9-6-7.4
			c-3.7-0.6-7.3,1.5-8.7,5.3c-0.5,1.4-0.8,2.9-0.8,4.3C103.1,44.9,103.2,51.7,103.2,58.6z"/>
		<path class="st0" d="M71.5,40.6c0,10.8-8.1,18.9-18.8,18.8C42.2,59.5,34,51.2,34,40.8c0-10.7,8.2-18.9,18.8-18.9
			C63.5,21.9,71.5,29.9,71.5,40.6z M64.6,40.7c0-6.8-5.1-12.2-11.6-12.2c-7,0-12,5.1-11.9,12.2c0,6.9,5.3,12.3,11.9,12.2
			C59.5,52.9,64.6,47.6,64.6,40.7z"/>
		<path class="st0" d="M170.4,22.5c0,12.2,0,24.1,0,36.1c-2.2,0-4.4,0-6.6,0c-0.1-0.7-0.1-1.3-0.2-1.8c-2.1,0.8-4.1,1.9-6.3,2.3
			c-9.8,2.2-18.2-4-18.6-14c-0.3-7.3-0.1-14.5-0.1-21.8c0-0.2,0.1-0.4,0.2-0.7c2.1,0,4.3,0,6.6,0c0,0.7,0.1,1.4,0.1,2
			c0,6.5,0,13.1,0,19.6c0,4.7,2.6,7.6,7.2,8.5c5.4,1,10.7-3.3,10.9-8.8c0.1-6.3,0.1-12.6,0.1-18.8c0-2.6,0-2.6,2.7-2.6
			C167.6,22.5,168.9,22.5,170.4,22.5z"/>
		<path class="st0" d="M34.8,50.6c-5.9,7.8-13.8,10.7-21.9,8.1C5.3,56.1,0.1,48.8,0,40.8c-0.1-8,5.2-15.5,12.6-18
			c8.1-2.7,16.2,0,21.7,7.2c-1.6,1.6-3.1,3.1-4.7,4.7c-6.8-9-16-6.7-20.1-1.8c-3.7,4.4-3.4,12.3,1,16.7c5.4,5.4,11.1,4.5,19.3-3.1
			C31.5,47.8,33.1,49.1,34.8,50.6z"/>
		<path class="st0" d="M128.9,22.7c2.3,0,4.4,0,6.7,0c0,12,0,23.8,0,35.9c-2.2,0-4.4,0-6.7,0C128.9,46.7,128.9,34.8,128.9,22.7z"/>
		<path class="st0" d="M132.8,12.9c-3.8,0-6.3-2.7-6.3-6.5c0-3.5,2.9-6.4,6.4-6.4c3.5,0,6.5,3,6.5,6.5
			C139.4,10.2,136.6,12.9,132.8,12.9z"/>
	</g>
</g>
</svg>
