<svg width="43" height="43" viewBox="0 0 43 43" fill="none" xmlns="http://www.w3.org/2000/svg">
<path d="M39.44 41C39.9861 41 40.2591 41 40.4676 40.8937C40.6511 40.8003 40.8003 40.6511 40.8937 40.4676C41 40.2591 41 39.9861 41 39.44V19.16C41 18.614 41 18.3409 40.8937 18.1324C40.8003 17.9489 40.6511 17.7997 40.4676 17.7063C40.2591 17.6 39.9861 17.6 39.44 17.6L34.76 17.6C34.2139 17.6 33.9409 17.6 33.7324 17.7063C33.5489 17.7997 33.3997 17.9489 33.3063 18.1324C33.2 18.3409 33.2 18.614 33.2 19.16V23.84C33.2 24.3861 33.2 24.6591 33.0937 24.8676C33.0003 25.0511 32.8511 25.2003 32.6676 25.2937C32.4591 25.4 32.1861 25.4 31.64 25.4H26.96C26.4139 25.4 26.1409 25.4 25.9324 25.5063C25.7489 25.5997 25.5997 25.7489 25.5063 25.9324C25.4 26.1409 25.4 26.4139 25.4 26.96V31.64C25.4 32.1861 25.4 32.4591 25.2937 32.6676C25.2003 32.8511 25.0511 33.0003 24.8676 33.0937C24.6591 33.2 24.3861 33.2 23.84 33.2H19.16C18.6139 33.2 18.3409 33.2 18.1324 33.3063C17.9489 33.3997 17.7997 33.5489 17.7063 33.7324C17.6 33.9409 17.6 34.2139 17.6 34.76V39.44C17.6 39.986 17.6 40.2591 17.7063 40.4676C17.7997 40.6511 17.9489 40.8003 18.1324 40.8937C18.3409 41 18.6139 41 19.16 41L39.44 41Z" stroke="white" stroke-width="2.5" stroke-linecap="round" stroke-linejoin="round"/>
<path d="M17.6 11.36C17.6 10.8139 17.6 10.5409 17.7063 10.3324C17.7997 10.1489 17.9489 9.99975 18.1324 9.90627C18.3409 9.8 18.6139 9.8 19.16 9.8H23.84C24.3861 9.8 24.6591 9.8 24.8676 9.90627C25.0511 9.99975 25.2003 10.1489 25.2937 10.3324C25.4 10.5409 25.4 10.8139 25.4 11.36V16.04C25.4 16.5861 25.4 16.8591 25.2937 17.0676C25.2003 17.2511 25.0511 17.4003 24.8676 17.4937C24.6591 17.6 24.3861 17.6 23.84 17.6H19.16C18.6139 17.6 18.3409 17.6 18.1324 17.4937C17.9489 17.4003 17.7997 17.2511 17.7063 17.0676C17.6 16.8591 17.6 16.5861 17.6 16.04V11.36Z" stroke="white" stroke-width="2.5" stroke-linecap="round" stroke-linejoin="round"/>
<path d="M3.95 23.06C3.95 22.5139 3.95 22.2409 4.05627 22.0324C4.14975 21.8489 4.2989 21.6997 4.48236 21.6063C4.69092 21.5 4.96395 21.5 5.51 21.5H10.19C10.7361 21.5 11.0091 21.5 11.2176 21.6063C11.4011 21.6997 11.5503 21.8489 11.6437 22.0324C11.75 22.2409 11.75 22.5139 11.75 23.06V27.74C11.75 28.2861 11.75 28.5591 11.6437 28.7676C11.5503 28.9511 11.4011 29.1003 11.2176 29.1937C11.0091 29.3 10.7361 29.3 10.19 29.3H5.51C4.96395 29.3 4.69092 29.3 4.48236 29.1937C4.2989 29.1003 4.14975 28.9511 4.05627 28.7676C3.95 28.5591 3.95 28.2861 3.95 27.74V23.06Z" stroke="white" stroke-width="2.5" stroke-linecap="round" stroke-linejoin="round"/>
<path d="M2 3.56C2 3.01395 2 2.74092 2.10627 2.53236C2.19975 2.3489 2.3489 2.19975 2.53236 2.10627C2.74092 2 3.01395 2 3.56 2H8.24C8.78605 2 9.05908 2 9.26764 2.10627C9.4511 2.19975 9.60025 2.3489 9.69373 2.53236C9.8 2.74092 9.8 3.01395 9.8 3.56V8.24C9.8 8.78605 9.8 9.05908 9.69373 9.26764C9.60025 9.4511 9.4511 9.60025 9.26764 9.69373C9.05908 9.8 8.78605 9.8 8.24 9.8H3.56C3.01395 9.8 2.74092 9.8 2.53236 9.69373C2.3489 9.60025 2.19975 9.4511 2.10627 9.26764C2 9.05908 2 8.78605 2 8.24V3.56Z" stroke="white" stroke-width="2.5" stroke-linecap="round" stroke-linejoin="round"/>
</svg>
