<svg width="42" height="48" viewBox="0 0 42 48" fill="none" xmlns="http://www.w3.org/2000/svg">
<path d="M40.7018 12.7973V18.922C38.2838 18.7315 35.8973 18.1621 33.7296 17.1361L33.7296 17.136L33.7168 17.1302C32.6493 16.6433 31.6418 16.0183 30.6091 15.343L29.0681 14.3355L29.0618 16.1766C29.0543 18.3753 29.0552 20.5688 29.0562 22.759C29.0577 26.3943 29.0593 30.0205 29.0221 33.6459C28.8684 36.2629 28.006 38.852 26.5042 40.9842L26.5 40.9902L26.4958 40.9964C24.0548 44.574 19.8134 46.9058 15.4846 46.9801L15.4653 46.9805L15.4459 46.9816C12.8019 47.1295 10.1364 46.4081 7.85006 45.0588L7.84938 45.0584C4.08483 42.8407 1.4379 38.7741 1.04 34.4349C1.00151 33.4642 0.983245 32.5123 1.01988 31.5878C1.36177 28.0544 3.11648 24.6661 5.82915 22.3622L5.82918 22.3622L5.83708 22.3554C8.7346 19.8419 12.7038 18.5596 16.4893 19.0178C16.4951 20.4176 16.4709 21.7943 16.4465 23.1832C16.4314 24.0412 16.4163 24.9038 16.408 25.7794C14.5081 25.483 12.4559 25.8156 10.8052 26.9491C9.3637 27.8909 8.27718 29.3209 7.70695 30.9242C7.27287 31.998 7.31555 33.173 7.34835 34.0758C7.35403 34.2322 7.35942 34.3804 7.36198 34.5185L7.36315 34.582L7.37234 34.6448C7.91962 38.3845 11.4869 41.5662 15.4107 41.2395C18.0053 41.2013 20.4352 39.7034 21.7553 37.5411L21.762 37.5301L21.7684 37.519C21.7947 37.4733 21.8225 37.4257 21.8514 37.3761C22.1923 36.7915 22.6903 35.9375 22.721 34.9421C22.8693 32.2777 22.8646 29.613 22.8599 26.9769C22.8583 26.0424 22.8566 25.1116 22.8618 24.1856L22.8618 24.1825C22.8693 21.1536 22.8684 18.1312 22.8674 15.1122C22.866 10.4131 22.8645 5.72214 22.8949 1.02754C24.131 1.01496 25.3578 1.0131 26.5878 1.01124C27.3237 1.01013 28.0608 1.00901 28.8017 1.0056C29.133 3.94486 30.2996 6.90856 32.5226 9.05494C34.7575 11.2672 37.774 12.352 40.7018 12.7973Z" stroke="white" stroke-width="2"/>
</svg>
